# xmcd
# 
# Track frame offsets:
#     150
#     14970
#     32480
#     42160
#     55540
#     70935
#     114085
#     128322
#     144537
#     156342
#     169727
#     181072
#     194352
#     204450
#     214750
# 
# Disc length: 3094
# 
# Revision: 0
# Processed by: cddbd v1.5.2PL0 Copyright (c) Steve Scherf et al.
# Submitted via: BonkEnc v1.0.8
# 
DISCID=c90c140f
DTITLE=Various Artist - From Spirituals To Swing - Carnegie Hall Concerts 1938/39
DYEAR=1939
DGENRE=Swing Jazz
TTITLE0=Stompin' at the Savoy - Benny Goodman Sextet
TTITLE1=Honeysuckle Rose - Benny Goodman Sextet
TTITLE2=Gospel Train (Trad.) - Golden Gate Quartet
TTITLE3=I'm on my Way (Trad.) - Golden Gate Quartet
TTITLE4=Four day Creep - Ida Cox, vocal - James P. Johnson, piano - Clayton - Wells - Young - Jones - Green - Page
TTITLE5=Oh Lady Be Good - Jam Session
TTITLE6=Mountain Blues - Sonny Terry
TTITLE7=The New John Henry - Sonny Terry - Bull City Red
TTITLE8=It's all Right Baby - Joe Turner, vocal - Pete Johnson, piano
TTITLE9=Cavalcade of Boogie - Lewis - Ammons - Page - Jones
TTITLE10=Done Got Wise - Broonzy - Ammons - Page - Jones
TTITLE11=Louise, Louise - Broonzy - Ammons - Page - Jones
TTITLE12=What More Can My Jesus Do - Mitchell's Christian Singers
TTITLE13=My Poor Mother Died A'shoutin' - Mitchell-s Christian Singers
TTITLE14=Paging the Devil - Kansas City Six
EXTD=ID3G:   0
EXTT0=
EXTT1=
EXTT2=
EXTT3=
EXTT4=
EXTT5=
EXTT6=
EXTT7=
EXTT8=
EXTT9=
EXTT10=
EXTT11=
EXTT12=
EXTT13=
EXTT14=
PLAYORDER=
